<svg xmlns="http://www.w3.org/2000/svg" width="18" height="18" viewBox="0 0 18 18" fill="none">
<g clip-path="url(#clip0_6_1017)">
<path d="M9 0C7.21997 0 5.47991 0.527841 3.99987 1.51677C2.51983 2.50571 1.36628 3.91131 0.685088 5.55585C0.00389955 7.20038 -0.17433 9.00998 0.172937 10.7558C0.520204 12.5016 1.37737 14.1053 2.63604 15.364C3.89472 16.6226 5.49836 17.4798 7.24419 17.8271C8.99002 18.1743 10.7996 17.9961 12.4442 17.3149C14.0887 16.6337 15.4943 15.4802 16.4832 14.0001C17.4722 12.5201 18 10.78 18 9C17.9962 6.61422 17.0468 4.32725 15.3598 2.64024C13.6728 0.953242 11.3858 0.00380811 9 0ZM12.7872 9.3024L7.0272 12.9024C6.97049 12.9367 6.90619 12.9565 6.84 12.96C6.77969 12.9603 6.72028 12.9454 6.6672 12.9168C6.61089 12.8851 6.56393 12.8392 6.53106 12.7835C6.49819 12.7279 6.48058 12.6646 6.48 12.6V5.4C6.48058 5.33539 6.49819 5.27208 6.53106 5.21646C6.56393 5.16083 6.61089 5.11487 6.6672 5.0832C6.72251 5.04949 6.78603 5.03166 6.8508 5.03166C6.91557 5.03166 6.9791 5.04949 7.0344 5.0832L12.7944 8.6832C12.8466 8.71456 12.8898 8.75889 12.9197 8.81188C12.9497 8.86487 12.9655 8.92472 12.9655 8.9856C12.9655 9.04648 12.9497 9.10633 12.9197 9.15932C12.8898 9.21231 12.8466 9.25664 12.7944 9.288L12.7872 9.3024Z" fill="white"/>
</g>
<defs>
<clipPath id="clip0_6_1017">
<rect width="18" height="18" fill="white"/>
</clipPath>
</defs>
</svg>