<svg xmlns="http://www.w3.org/2000/svg" width="18" height="18" viewBox="0 0 18 18" fill="none">
<g clip-path="url(#clip0_6_1021)">
<path d="M9 0C4.03741 0 0 4.03741 0 9C0 13.9626 4.03741 18 9 18C13.9626 18 18 13.9626 18 9C18 4.03741 13.9626 0 9 0ZM6.07384 1.74192C5.53134 2.48133 5.12835 3.35644 4.84003 4.2153C4.31596 4.02743 3.8308 3.80271 3.39497 3.54417C4.14756 2.77126 5.058 2.15297 6.07384 1.74192ZM2.63299 4.45437C3.19447 4.80466 3.82957 5.10307 4.51912 5.34442C4.29177 6.30538 4.15547 7.34168 4.11898 8.413H1.19587C1.30528 6.94424 1.82194 5.58714 2.63299 4.45437ZM2.63296 13.5456C1.82194 12.4129 1.30525 11.0558 1.19584 9.58697H4.11891C4.1554 10.6583 4.2917 11.6946 4.51905 12.6555C3.82954 12.8969 3.19451 13.1953 2.63296 13.5456ZM3.395 14.4558C3.83084 14.1973 4.31599 13.9725 4.84007 13.7847C5.12835 14.6435 5.53134 15.5186 6.07388 16.258C5.058 15.847 4.14756 15.2287 3.395 14.4558ZM8.41303 16.7177C7.20091 16.2728 6.38381 14.6793 5.96549 13.4517C6.73334 13.269 7.55793 13.1567 8.41303 13.1213V16.7177ZM8.41303 11.9466C7.44964 11.9839 6.51688 12.1121 5.64585 12.3235C5.44813 11.4685 5.32811 10.545 5.29327 9.58693H8.41303V11.9466ZM8.41303 8.41303H5.29327C5.32807 7.45492 5.44809 6.53154 5.64585 5.67647C6.51688 5.8879 7.44964 6.01611 8.41303 6.05341V8.41303ZM8.41303 4.87874C7.55796 4.8433 6.73337 4.73098 5.96549 4.54827C6.3835 3.32153 7.20056 1.72726 8.41303 1.28229V4.87874ZM15.367 4.4544C16.1781 5.5871 16.6948 6.94424 16.8042 8.41303H13.8811C13.8446 7.34168 13.7083 6.30541 13.4809 5.34445C14.1705 5.10311 14.8055 4.8047 15.367 4.4544ZM14.605 3.54421C14.1692 3.80275 13.684 4.02746 13.1599 4.21534C12.8717 3.35654 12.4687 2.48143 11.9261 1.74196C12.942 2.15297 13.8524 2.77126 14.605 3.54421ZM9.58697 1.28229C10.7991 1.72716 11.6162 3.32072 12.0345 4.54827C11.2667 4.73101 10.4421 4.84327 9.58697 4.87874V1.28229ZM9.58697 6.05345C10.5504 6.01615 11.4831 5.88793 12.3542 5.6765C12.5519 6.53154 12.6719 7.45495 12.7067 8.41307H9.58697V6.05345ZM9.58697 9.58303H12.7067C12.6719 10.5411 12.5519 11.4685 12.3542 12.3235C11.4831 12.1121 10.5504 11.9839 9.58697 11.9466V9.58303ZM9.58697 16.7177V13.1213C10.442 13.1567 11.2666 13.269 12.0345 13.4517C11.6165 14.6784 10.7994 16.2727 9.58697 16.7177ZM11.9262 16.2581C12.4687 15.5187 12.8717 14.6436 13.16 13.7847C13.684 13.9726 14.1692 14.1973 14.605 14.4558C13.8524 15.2287 12.942 15.847 11.9262 16.2581ZM15.367 13.5456C14.8055 13.1953 14.1704 12.8969 13.4809 12.6556C13.7082 11.6946 13.8445 10.6544 13.881 9.5831H16.8041C16.6947 11.0519 16.1781 12.4129 15.367 13.5456Z" fill="white"/>
</g>
<defs>
<clipPath id="clip0_6_1021">
<rect width="18" height="18" fill="white"/>
</clipPath>
</defs>
</svg>